<?xml version="1.0" encoding="UTF-8"?>
<svg width="64px" height="64px" viewBox="0 0 64 64" version="1.1" xmlns="http://www.w3.org/2000/svg" xmlns:xlink="http://www.w3.org/1999/xlink">
    <!-- Generator: Sketch 43.2 (39069) - http://www.bohemiancoding.com/sketch -->
    <title>logo</title>
    <desc>Created with Sketch.</desc>
    <defs>
        <linearGradient x1="50%" y1="0%" x2="50%" y2="100%" id="linearGradient-1">
            <stop stop-color="#4A4A4A" offset="0%"></stop>
            <stop stop-color="#2B2B2B" offset="100%"></stop>
        </linearGradient>
    </defs>
    <g id="Page-1" stroke="none" stroke-width="1" fill="none" fill-rule="evenodd">
        <g id="logo" fill-rule="nonzero">
            <g id="Gradients" fill="url(#linearGradient-1)">
                <circle id="Gradient---Black" cx="32" cy="32" r="32"></circle>
            </g>
            <g id="Inner-Circle" fill="#000000">
                <g id="path-2-link" fill-opacity="0">
                    <circle id="path-2" cx="32" cy="32" r="32"></circle>
                </g>
                <g id="path-2-link">
                    <circle id="path-2" cx="32" cy="32" r="32"></circle>
                </g>
            </g>
            <g id="Rocket" transform="translate(9.995157, 14.334141)" fill="#FDFDFD">
                <g id="Group">
                    <path d="M9.17495005,11.0524019 C8.00607545,11.0524019 6.88639335,11.5153435 6.06025155,12.3404026 L0.0114721522,18.3797466 L2.21412537,18.3797466 C3.69313358,18.3797466 5.12823555,18.5629302 6.51047385,18.8806439 L14.3545625,11.0524019 L9.17495005,11.0524019 Z" id="Shape"></path>
                    <path d="M28.6459639,25.2863552 L20.7904215,33.1059508 C21.114799,34.4979998 21.3037866,35.9403144 21.3037866,37.4308428 L21.3037866,39.6290463 L27.355356,33.5954175 C28.1820852,32.7707981 28.6459639,31.6507402 28.6459639,30.484227 L28.6459639,25.2863552 Z" id="Shape"></path>
                    <path d="M31.4395156,0.06138483 C28.7139525,0.06138483 26.0992563,1.14334055 24.1717879,3.06676853 L7.95306485,19.2556573 L8.4176779,19.4272638 C13.9632245,21.3303217 18.3428333,25.7034276 20.251212,31.2368918 L20.4090688,31.6863512 L36.6506995,15.5175392 C38.5803705,13.5964559 39.65923,10.9874816 39.65923,8.2674247 L39.65923,0.06138483 L31.4395156,0.06138483 Z M25.709093,9.58693295 C28.1420766,9.58693295 30.1143995,11.5552713 30.1143995,13.9833398 C30.1143995,16.4114082 28.1420766,18.3797466 25.709093,18.3797466 C23.2761095,18.3797466 21.3037866,16.4114082 21.3037866,13.9833398 C21.3037866,11.5552713 23.2761095,9.58693295 25.709093,9.58693295 Z" id="Shape"></path>
                    <path d="M13.9550013,30.1108255 L12.017107,32.0449513 C10.8879344,33.1718907 9.47308675,33.9713679 7.92384305,34.357901 L4.41765964,35.2326393 L5.2941688,31.7335392 C5.6814675,30.1874936 6.48250985,28.7755594 7.6116536,27.6486911 L9.5496948,25.7144187" id="Shape"></path>
                </g>
            </g>
        </g>
    </g>
</svg>