<?xml version="1.0" encoding="UTF-8"?>
<svg width="1024px" height="1024px" viewBox="0 0 1024 1024" version="1.1" xmlns="http://www.w3.org/2000/svg" xmlns:xlink="http://www.w3.org/1999/xlink">
    <!-- Generator: Sketch 43.2 (39069) - http://www.bohemiancoding.com/sketch -->
    <title>Icon</title>
    <desc>Created with Sketch.</desc>
    <defs>
        <linearGradient x1="50%" y1="0%" x2="50%" y2="100%" id="linearGradient-1">
            <stop stop-color="#4A4A4A" offset="0%"></stop>
            <stop stop-color="#2B2B2B" offset="100%"></stop>
        </linearGradient>
        <circle id="path-2" cx="512" cy="512" r="512"></circle>
        <filter x="-0.1%" y="-0.1%" width="100.3%" height="100.3%" filterUnits="objectBoundingBox" id="filter-3">
            <feGaussianBlur stdDeviation="1.5" in="SourceAlpha" result="shadowBlurInner1"></feGaussianBlur>
            <feOffset dx="0" dy="0" in="shadowBlurInner1" result="shadowOffsetInner1"></feOffset>
            <feComposite in="shadowOffsetInner1" in2="SourceAlpha" operator="arithmetic" k2="-1" k3="1" result="shadowInnerInner1"></feComposite>
            <feColorMatrix values="0 0 0 0 0   0 0 0 0 0   0 0 0 0 0  0 0 0 0.5 0" type="matrix" in="shadowInnerInner1"></feColorMatrix>
        </filter>
    </defs>
    <g id="Icon-without-base" stroke="none" stroke-width="1" fill="none" fill-rule="evenodd">
        <g id="Icon">
            <g id="Gradients" fill="url(#linearGradient-1)">
                <circle id="Gradient---Black" cx="512" cy="512" r="512"></circle>
            </g>
            <g id="Inner-Circle">
                <use fill-opacity="0" fill="#000000" fill-rule="evenodd" xlink:href="#path-2"></use>
                <use fill="black" fill-opacity="1" filter="url(#filter-3)" xlink:href="#path-2"></use>
            </g>
            <g transform="translate(159.922518, 229.346247)" id="Rocket" fill="#FDFDFD">
                <g>
                    <path d="M146.799201,176.83843 C128.097207,176.83843 110.182294,184.245496 96.9640251,197.446441 L0.183554435,294.075945 L35.4260059,294.075945 C59.0901373,294.075945 82.0517691,297.006883 104.167582,302.090302 L229.673,176.83843 L146.799201,176.83843 Z" id="Shape"></path>
                    <path d="M458.335423,404.581683 L332.646744,529.695214 C337.836783,551.967997 340.860585,575.04503 340.860585,598.893485 L340.860585,634.06474 L437.685696,537.52668 C450.913363,524.33277 458.335423,506.411843 458.335423,487.747631 L458.335423,404.581683 Z" id="Shape"></path>
                    <path d="M503.03225,0.982157284 C459.42324,0.982157284 417.588101,18.2934488 386.748606,49.0682965 L127.249038,308.090518 L134.682846,310.836221 C223.411591,341.285148 293.485332,411.254842 324.019392,499.790269 L326.545101,506.981618 L586.411191,248.280627 C617.285928,217.543295 634.54768,175.799706 634.54768,132.278795 L634.54768,0.982157284 L503.03225,0.982157284 Z M411.345488,153.390927 C450.273225,153.390927 481.830391,184.884341 481.830391,223.733436 C481.830391,262.582531 450.273225,294.075945 411.345488,294.075945 C372.417751,294.075945 340.860585,262.582531 340.860585,223.733436 C340.860585,184.884341 372.417751,153.390927 411.345488,153.390927 Z" id="Shape"></path>
                    <path d="M223.28002,481.773207 L192.273711,512.719222 C174.206951,530.75025 151.569388,543.541886 126.781489,549.726416 L70.6825543,563.72223 L84.7067005,507.736627 C90.9034801,482.999898 103.720158,460.40895 121.786458,442.379057 L152.795117,411.430698" id="Shape"></path>
                </g>
            </g>
        </g>
    </g>
</svg>