<?xml version="1.0" encoding="UTF-8"?>
<svg width="28px" height="28px" viewBox="0 0 28 28" version="1.1" xmlns="http://www.w3.org/2000/svg" xmlns:xlink="http://www.w3.org/1999/xlink">
    <!-- Generator: Sketch 44 (41411) - http://www.bohemiancoding.com/sketch -->
    <title>Group</title>
    <desc>Created with Sketch.</desc>
    <defs></defs>
    <g id="Rocket" stroke="none" stroke-width="1" fill="none" fill-rule="evenodd">
        <g id="noun_752272_cc" transform="translate(0.000000, -1.000000)" fill="#000000">
            <g id="Group" transform="translate(0.000000, 0.637800)">
                <path d="M6.7403,8.3622 C5.9443,8.3622 5.1818,8.6781 4.6192,9.2411 L0.5,13.3622 L2,13.3622 C3.0072,13.3622 3.9845,13.4872 4.9258,13.704 L10.2676,8.3622 L6.7403,8.3622 Z" id="Shape"></path>
                <path d="M20,18.0751 L14.6504,23.411 C14.8713,24.3609 15,25.3451 15,26.3622 L15,27.8622 L19.1211,23.745 C19.6841,23.1823 20,22.418 20,21.622 L20,18.0751 Z" id="Shape"></path>
                <path d="M21.9024,0.8622 C20.0463,0.8622 18.2657,1.6005 16.9531,2.913 L5.9082,13.9599 L6.2246,14.077 C10.0011,15.3756 12.9836,18.3597 14.2832,22.1356 L14.3907,22.4423 L25.4512,11.4091 C26.7653,10.0982 27.5,8.3179 27.5,6.4618 L27.5,0.8622 L21.9024,0.8622 Z M18,7.3622 C19.6568542,7.3622 21,8.70534575 21,10.3622 C21,12.0190542 19.6568542,13.3622 18,13.3622 C16.3431458,13.3622 15,12.0190542 15,10.3622 C15,8.70534575 16.3431458,7.3622 18,7.3622 Z" id="Shape"></path>
            </g>
        </g>
    </g>
</svg>